<?xml version="1.0" encoding="UTF-8"?>
<svg id="Capa_1" data-name="Capa 1" xmlns="http://www.w3.org/2000/svg" viewBox="0 0 193.71 202.24">
  <defs>
    <style>
      .cls-1 {
        fill: none;
        stroke: #343434;
        stroke-miterlimit: 10;
        stroke-width: 8.15px;
      }

      .cls-2 {
        fill: #343434;
      }
    </style>
  </defs>
  <path class="cls-1" d="M193.5,126.93c-47.34,3.76-108.91-19.39-151.29-109.52-25.1-19.02.76,61.61.76,61.61-52.48-26.62,8.37,34.99,8.37,34.99,10.65,9.89-48.68,3.04-16.73,12.93,31.95,9.89,59.33,13.69,31.19,30.43-22.56,13.41,84.38,29.27,127.72,35.04"/>
  <path class="cls-2" d="M141.17,85.14c-12.12-10.14-23.08-21.69-32.44-34.43-1.35-1.83-2.66-3.68-3.94-5.56-1.15-1.69-2.75-3.58-2.91-5.69-.2-2.6-4.27-2.62-4.07,0,.32,4.13,3.29,7.57,5.61,10.82,2.44,3.43,4.99,6.77,7.63,10.04,5.21,6.44,10.81,12.56,16.78,18.31,3.38,3.25,6.88,6.38,10.48,9.39,2,1.67,4.89-1.2,2.88-2.88h0Z"/>
  <path class="cls-2" d="M149.53,62.36c-8.05-5.25-14.95-12.17-20.19-20.23-1.42-2.19-4.95-.15-3.52,2.06,5.62,8.66,13,16.05,21.65,21.69,2.2,1.44,4.25-2.09,2.06-3.52h0Z"/>
</svg>