<?xml version="1.0" encoding="UTF-8"?>
<svg id="Capa_1" data-name="Capa 1" xmlns="http://www.w3.org/2000/svg" viewBox="0 0 193.71 202.24">
  <defs>
    <style>
      .cls-1 {
        fill: #343434;
      }
    </style>
  </defs>
  <path class="cls-1" d="M66.93,28.65c.57,0,.83.12.93.16.73.33,1.55,2.32,1.7,5.49.24,5-1.21,11.55-3.88,17.53-3.08,6.91-6.98,11.21-10.19,11.21-.78,0-1.66-.22-2.64-.65-2.25-1-3.82-2.64-4.67-4.87-1.31-3.43-.83-8.01,1.36-12.9,4.41-9.89,13.1-15.96,17.39-15.96M66.93,17.67c-10,0-21.85,9.99-27.41,22.46-6.61,14.79-1.85,27.49,8.87,32.27,2.42,1.08,4.8,1.6,7.11,1.6,7.96,0,15.1-6.24,20.21-17.72,6.61-14.82,7.36-32.72-3.38-37.51-1.7-.76-3.52-1.11-5.4-1.11h0Z"/>
  <path class="cls-1" d="M90.93,87.21c5.05,0,9.8,1.59,14.09,4.72,5.33,3.9,8.55,9.01,9.55,15.13.53,3.27.41,6.79-.35,10.41-2.28,10.73-.33,21.67,5.49,30.81,5.31,8.33,4.95,19.29-.89,27.29-4.6,6.3-11.72,9.91-19.53,9.91-5.15,0-10.07-1.62-14.27-4.69-5.86-4.27-7.31-8.26-9.31-13.78-2.05-5.66-4.6-12.71-12.2-18.25-7.47-5.5-15.26-5.84-19.44-6.02-.54-.02-1.09-.04-1.64-.06-5.88-.22-10.13-.38-16.01-4.7-5.22-3.81-8.64-9.42-9.63-15.8-.99-6.38.56-12.76,4.39-17.99,3.8-5.21,9.41-8.62,15.83-9.61,1.22-.19,2.47-.29,3.71-.29,2.08,0,4.15.27,6.19.81,3.35.88,6.81,1.32,10.28,1.32,7.19,0,14.29-1.91,20.51-5.5,4.22-2.42,8.78-3.69,13.2-3.69M90.93,76.24c-6.36,0-12.74,1.76-18.65,5.14-4.62,2.67-9.82,4.05-15.06,4.05-2.51,0-5.03-.32-7.5-.96-2.95-.78-5.97-1.17-8.97-1.17-1.82,0-3.63.14-5.41.42-8.89,1.37-17.27,6.15-22.99,13.99-11.49,15.68-8.04,37.69,7.64,49.13,9.28,6.82,16.81,6.57,23.64,6.86,4.69.2,9.06.69,13.42,3.9,10.8,7.86,5.84,20.61,21.53,32.05,6.26,4.59,13.53,6.8,20.73,6.8,10.83,0,21.52-4.99,28.4-14.41,8.8-12.05,8.83-27.82,1.28-39.67-4.28-6.72-5.66-14.85-4.01-22.63,1.03-4.95,1.19-9.82.45-14.43-1.43-8.71-6.07-16.51-13.9-22.24-6.35-4.62-13.45-6.84-20.58-6.84h0Z"/>
  <path class="cls-1" d="M124.68,16.76c.89,0,2.12.12,2.93.71,1.43,1.04,1.44,4.44.97,7.28-.92,5.57-4.05,12.42-8.37,18.33-4.67,6.39-9.69,10.21-13.42,10.21-1.35,0-2.72-.52-4.2-1.6-2.62-1.91-4.14-4.61-4.4-7.81-.34-4.06,1.34-8.84,4.71-13.45,6.48-8.87,16.06-13.65,21.79-13.65M124.68,5.79c-10.23,0-22.86,7.48-30.65,18.15-10.49,14.35-8.31,29.02,2.08,36.61,3.41,2.5,7.01,3.72,10.67,3.72,7.49,0,15.25-5.08,22.29-14.71,10.49-14.35,15.41-33.36,5.02-40.95-2.66-1.94-5.89-2.82-9.4-2.82h0Z"/>
  <path class="cls-1" d="M174.4,107.67c.74,0,1.69.09,2.08.52,2.04,2.28-.05,13.82-9.47,22.24-3.78,3.37-7.8,5.22-11.33,5.22-2.63,0-4.86-1.01-6.65-3.01-1.7-1.9-1.8-3.33-1.44-4.89.41-1.75,1.94-5.45,7.61-10.52,6.32-5.63,14.21-9.57,19.2-9.57M174.4,96.69c-8.21,0-18.42,5.14-26.51,12.35-12.09,10.81-14.88,22.15-7.05,30.91,3.84,4.32,9.07,6.68,14.83,6.68s12.48-2.52,18.63-8.01c12.09-10.81,18.18-28.99,10.35-37.75-2.59-2.91-6.18-4.18-10.26-4.18h0Z"/>
  <path class="cls-1" d="M167.55,47.38c.87,0,1.28.21,1.58.43,1.34.98,2.52,4.2,2.15,9.2-.46,6.11-3.06,12.95-6.97,18.3-4.11,5.62-9.18,8.85-13.9,8.85-2.24,0-4.35-.71-6.29-2.13-2.24-1.64-3.14-3.31-3.09-5.78.06-3.62,2.18-8.46,5.95-13.62,7.24-9.91,16-15.26,20.57-15.26M167.55,36.41c-9.69,0-21.37,8.73-29.43,19.76-10.49,14.35-10.86,27.15-.47,34.74,3.81,2.79,8.21,4.24,12.76,4.24,7.84,0,16.14-4.28,22.76-13.35,10.49-14.35,12.84-35.24,2.43-42.84-2.4-1.75-5.14-2.55-8.06-2.55h0Z"/>
</svg>