<?xml version="1.0" encoding="UTF-8"?>
<svg id="Capa_1" data-name="Capa 1" xmlns="http://www.w3.org/2000/svg" viewBox="0 0 369.8 469.52">
  <defs>
    <style>
      .cls-1 {
        fill: #343434;
      }
    </style>
  </defs>
  <g>
    <path class="cls-1" d="M270.6,162.97c-5.24-20.26-.15-35.69-14.18-45.04-14.51-8.59-26.2,2.69-46.73,6.74-30.12,5.95-36.23,23.68-26.65,34.18,9.58,10.49,27.66,3.62,40.09,11.78.04.03.08.05.12.08.04.02.08.05.12.07,12.73,7.66,14.38,26.94,27.99,31.02,13.61,4.08,26.94-9.11,19.25-38.83Z"/>
    <path class="cls-1" d="M229.37,79.73c1.14,16.81-6.72,31.02-17.56,31.76-10.83.73-20.54-12.29-21.68-29.1-1.14-16.81,6.72-31.02,17.56-31.76,10.83-.73,20.54,12.3,21.68,29.1Z"/>
    <path class="cls-1" d="M302.57,125.75c-15.64,6.26-25.04,19.51-21.01,29.59,4.03,10.08,19.98,13.18,35.62,6.92,15.64-6.26,25.04-19.51,21.01-29.59-4.03-10.08-19.98-13.18-35.62-6.92Z"/>
    <path class="cls-1" d="M280.29,71.26c-6.67,16.46-20.68,26.32-31.3,22.02-10.61-4.3-13.81-21.13-7.14-37.6,6.67-16.46,20.68-26.32,31.3-22.02,10.61,4.3,13.81,21.13,7.14,37.6Z"/>
    <path class="cls-1" d="M288.14,76.2c-11.94,13.15-14.76,30.05-6.28,37.75,8.48,7.7,25.03,3.28,36.97-9.86,11.94-13.15,14.76-30.05,6.28-37.75-8.48-7.7-25.03-3.28-36.97,9.86Z"/>
  </g>
  <path class="cls-1" d="M174.13,110.28c-.09.05-.17.1-.22.15-12.8,8.78-16.6,19.74-23.54,39.64-13.11,37.69-37.09,106.63-150.37,256.65l3.29,2.06c113.46-150.31,137.56-219.56,150.72-257.43,6.87-19.75,10.31-29.67,22.06-37.74.53-.35,1.08-.72,1.62-1.07l1.54-.99-.9-1.59c-4.35-7.64-6.98-16.73-7.63-26.26-1.05-15.65,3.32-30.36,12.05-40.32,3.66-4.21,11.6-11.37,23.64-12.19,7.3-.49,14.55,1.52,21,5.79l1.6,1.05,1.07-1.62c4.17-6.29,9.13-11.5,14.76-15.45,6.03-4.26,12.45-6.79,19.06-7.55,5.77-.65,11.35.07,16.58,2.21,5.25,2.12,9.76,5.47,13.45,9.96,3.92,4.76,6.65,10.57,8.12,17.23l.42,1.89,1.91-.44c2.7-.62,5.42-1.01,8.09-1.15,9.86-.46,19.01,2.67,25.77,8.82,6.79,6.14,10.77,14.96,11.25,24.81.46,9.7-2.36,19.94-8.15,29.63l-.99,1.67,1.65.98c6.68,3.91,11.61,9.62,14.33,16.43,2.05,5.14,2.75,10.58,2.08,16.24-.75,6.34-3.33,12.73-7.42,18.51-6.11,8.6-15.53,15.76-26.54,20.16-8.85,3.55-18.18,5.1-26.95,4.49l-1.82-.11-.21,1.81c-.09.65-.17,1.29-.27,1.94-1.27,8.23-15.78,25.54-37.72,51.76-37.96,45.36-100.03,119.57-160.22,227.24l3.27,2.05c60.05-107.44,122.02-181.53,159.9-226.81,23.16-27.67,37.14-44.36,38.56-53.66.03-.09.04-.19.04-.27,8.82.33,18.06-1.34,26.87-4.86,11.68-4.67,21.7-12.32,28.23-21.52,4.47-6.31,7.27-13.32,8.11-20.29.75-6.29-.04-12.39-2.33-18.11-2.81-7.04-7.74-12.99-14.31-17.31,5.55-9.84,8.21-20.25,7.74-30.15-.53-10.9-4.96-20.64-12.49-27.48-7.52-6.86-17.66-10.33-28.54-9.81-2.29.12-4.62.4-6.93.85-1.68-6.49-4.53-12.2-8.45-16.99-4.1-4.98-9.13-8.71-14.98-11.1-5.84-2.36-12.05-3.19-18.49-2.45-7.25.83-14.25,3.61-20.83,8.24-5.56,3.89-10.49,8.91-14.7,14.93-6.73-4.05-14.22-5.91-21.77-5.4-9.95.68-19.28,5.47-26.3,13.5-9.36,10.72-14.1,26.43-12.95,43.12.63,9.47,3.13,18.53,7.25,26.31Z"/>
</svg>